<svg width="87" height="58" viewBox="0 0 87 58" fill="none" xmlns="http://www.w3.org/2000/svg">
<mask id="path-1-outside-1_98_7" maskUnits="userSpaceOnUse" x="0" y="0" width="87" height="58" fill="black">
<rect fill="white" width="87" height="58"/>
<path fill-rule="evenodd" clip-rule="evenodd" d="M43.918 4.46855C40.1102 2.15618 35.6601 1 30.5677 1H1V56.3391H30.5677C35.6142 56.3391 40.0413 55.183 43.8491 52.8706C47.7028 50.5582 50.6619 47.2999 52.7263 43.0956C54.1598 40.2398 55.1064 37.1052 55.5662 33.6917L70.617 56.3391H84.9994L65.5935 28.1178L84.3113 1H70.4794L55.5519 23.5077C55.0869 20.1227 54.1451 17.0347 52.7263 14.2436C50.6619 10.0393 47.7257 6.78092 43.918 4.46855ZM40.2019 40.4942C37.7246 43.2795 34.2608 44.6722 29.8108 44.6722H12.7675V12.5093H29.8108C34.2608 12.5093 37.7246 13.9282 40.2019 16.7661C42.6793 19.604 43.918 23.5719 43.918 28.6696C43.918 33.7673 42.6793 37.7088 40.2019 40.4942Z"/>
</mask>
<path fill-rule="evenodd" clip-rule="evenodd" d="M43.918 4.46855C40.1102 2.15618 35.6601 1 30.5677 1H1V56.3391H30.5677C35.6142 56.3391 40.0413 55.183 43.8491 52.8706C47.7028 50.5582 50.6619 47.2999 52.7263 43.0956C54.1598 40.2398 55.1064 37.1052 55.5662 33.6917L70.617 56.3391H84.9994L65.5935 28.1178L84.3113 1H70.4794L55.5519 23.5077C55.0869 20.1227 54.1451 17.0347 52.7263 14.2436C50.6619 10.0393 47.7257 6.78092 43.918 4.46855ZM40.2019 40.4942C37.7246 43.2795 34.2608 44.6722 29.8108 44.6722H12.7675V12.5093H29.8108C34.2608 12.5093 37.7246 13.9282 40.2019 16.7661C42.6793 19.604 43.918 23.5719 43.918 28.6696C43.918 33.7673 42.6793 37.7088 40.2019 40.4942Z" fill="url(#paint0_linear_98_7)"/>
<path d="M43.918 4.46855L44.437 3.61381L44.437 3.61381L43.918 4.46855ZM1 1V0H0V1H1ZM1 56.3391H0V57.3391H1V56.3391ZM43.8491 52.8706L43.3346 52.0131L43.3301 52.0159L43.8491 52.8706ZM52.7263 43.0956L51.8326 42.647L51.8287 42.6548L52.7263 43.0956ZM55.5662 33.6917L56.399 33.1383L54.9295 30.9271L54.5751 33.5583L55.5662 33.6917ZM70.617 56.3391L69.7841 56.8926L70.0809 57.3391H70.617V56.3391ZM84.9994 56.3391V57.3391H86.9007L85.8234 55.7725L84.9994 56.3391ZM65.5935 28.1178L64.7705 27.5497L64.3791 28.1167L64.7695 28.6844L65.5935 28.1178ZM84.3113 1L85.1343 1.56806L86.2166 0L84.3113 0V1ZM70.4794 1V0H69.9426L69.646 0.447291L70.4794 1ZM55.5519 23.5077L54.5612 23.6437L54.9216 26.2673L56.3853 24.0604L55.5519 23.5077ZM52.7263 14.2436L51.8286 14.6844L51.8349 14.6967L52.7263 14.2436ZM40.2019 40.4942L39.4547 39.8296L39.4547 39.8296L40.2019 40.4942ZM12.7675 44.6722H11.7675V45.6722H12.7675V44.6722ZM12.7675 12.5093V11.5093H11.7675V12.5093H12.7675ZM40.2019 16.7661L39.4486 17.4238L39.4486 17.4238L40.2019 16.7661ZM30.5677 2C35.5038 2 39.7689 3.11891 43.3989 5.32329L44.437 3.61381C40.4514 1.19345 35.8164 0 30.5677 0V2ZM1 2H30.5677V0H1V2ZM2 56.3391V1H0V56.3391H2ZM30.5677 55.3391H1V57.3391H30.5677V55.3391ZM43.3301 52.0159C39.6987 54.2211 35.456 55.3391 30.5677 55.3391V57.3391C35.7724 57.3391 40.384 56.1449 44.3682 53.7253L43.3301 52.0159ZM51.8287 42.6548C49.8454 46.6939 47.0159 49.8042 43.3346 52.0131L44.3637 53.7281C48.3897 51.3123 51.4784 47.9059 53.624 43.5364L51.8287 42.6548ZM54.5751 33.5583C54.129 36.8706 53.2127 39.8976 51.8326 42.647L53.6201 43.5442C55.1069 40.5821 56.0838 37.3398 56.5572 33.8252L54.5751 33.5583ZM71.4498 55.7857L56.399 33.1383L54.7333 34.2452L69.7841 56.8926L71.4498 55.7857ZM84.9994 55.3391H70.617V57.3391H84.9994V55.3391ZM64.7695 28.6844L84.1754 56.9058L85.8234 55.7725L66.4175 27.5512L64.7695 28.6844ZM83.4883 0.43194L64.7705 27.5497L66.4164 28.6858L85.1343 1.56806L83.4883 0.43194ZM70.4794 2H84.3113V0H70.4794V2ZM56.3853 24.0604L71.3127 1.55271L69.646 0.447291L54.7185 22.955L56.3853 24.0604ZM51.8349 14.6967C53.1987 17.3797 54.11 20.3592 54.5612 23.6437L56.5426 23.3716C56.0638 19.8862 55.0915 16.6896 53.6178 13.7904L51.8349 14.6967ZM43.3989 5.32329C47.035 7.5314 49.8438 10.6421 51.8287 14.6843L53.624 13.8028C51.4799 9.43645 48.4165 6.03044 44.437 3.61381L43.3989 5.32329ZM29.8108 45.6722C34.4859 45.6722 38.2452 44.1988 40.9491 41.1588L39.4547 39.8296C37.2039 42.3602 34.0358 43.6722 29.8108 43.6722V45.6722ZM12.7675 45.6722H29.8108V43.6722H12.7675V45.6722ZM11.7675 12.5093V44.6722H13.7675V12.5093H11.7675ZM29.8108 11.5093H12.7675V13.5093H29.8108V11.5093ZM40.9553 16.1085C38.2531 13.0131 34.492 11.5093 29.8108 11.5093V13.5093C34.0296 13.5093 37.196 14.8433 39.4486 17.4238L40.9553 16.1085ZM44.918 28.6696C44.918 23.4161 43.6403 19.1844 40.9553 16.1085L39.4486 17.4238C41.7182 20.0237 42.918 23.7276 42.918 28.6696H44.918ZM40.9491 41.1588C43.6409 38.1324 44.918 33.9217 44.918 28.6696H42.918C42.918 33.6129 41.7177 37.2853 39.4547 39.8296L40.9491 41.1588Z" fill="#FBFDFD" fill-opacity="0.1" mask="url(#path-1-outside-1_98_7)"/>
<defs>
<linearGradient id="paint0_linear_98_7" x1="42.9997" y1="1" x2="42.9997" y2="56.3391" gradientUnits="userSpaceOnUse">
<stop stop-color="#0C0F18"/>
<stop offset="1" stop-color="#494949"/>
</linearGradient>
</defs>
</svg>
