<svg width="87" height="58" viewBox="0 0 87 58" fill="none" xmlns="http://www.w3.org/2000/svg">
<mask id="path-1-outside-1_98_12" maskUnits="userSpaceOnUse" x="0" y="0" width="87" height="58" fill="black">
<rect fill="white" width="87" height="58"/>
<path fill-rule="evenodd" clip-rule="evenodd" d="M43.9182 4.46857C40.1104 2.15619 35.6603 1 30.5679 1H1V56.3395H30.5679C35.6144 56.3395 40.0416 55.1833 43.8494 52.8709C47.7031 50.5586 50.6622 47.3002 52.7267 43.0959C54.1601 40.2402 55.1067 37.1057 55.5665 33.6924L70.6171 56.3395H84.9996L65.5935 28.1179L84.3115 1H70.4794L55.5522 23.5073C55.0872 20.1226 54.1454 17.0347 52.7267 14.2436C50.6622 10.0393 47.7261 6.78096 43.9182 4.46857ZM40.2022 40.4944C37.7248 43.2798 34.2611 44.6725 29.811 44.6725H12.7675V12.5094H29.811C34.2611 12.5094 37.7248 13.9283 40.2022 16.7662C42.6796 19.6042 43.9182 23.572 43.9182 28.6698C43.9182 33.7675 42.6796 37.7091 40.2022 40.4944Z"/>
</mask>
<path fill-rule="evenodd" clip-rule="evenodd" d="M43.9182 4.46857C40.1104 2.15619 35.6603 1 30.5679 1H1V56.3395H30.5679C35.6144 56.3395 40.0416 55.1833 43.8494 52.8709C47.7031 50.5586 50.6622 47.3002 52.7267 43.0959C54.1601 40.2402 55.1067 37.1057 55.5665 33.6924L70.6171 56.3395H84.9996L65.5935 28.1179L84.3115 1H70.4794L55.5522 23.5073C55.0872 20.1226 54.1454 17.0347 52.7267 14.2436C50.6622 10.0393 47.7261 6.78096 43.9182 4.46857ZM40.2022 40.4944C37.7248 43.2798 34.2611 44.6725 29.811 44.6725H12.7675V12.5094H29.811C34.2611 12.5094 37.7248 13.9283 40.2022 16.7662C42.6796 19.6042 43.9182 23.572 43.9182 28.6698C43.9182 33.7675 42.6796 37.7091 40.2022 40.4944Z" fill="url(#paint0_linear_98_12)"/>
<path d="M43.9182 4.46857L44.4373 3.61383L44.4373 3.61383L43.9182 4.46857ZM1 1V0H0V1H1ZM1 56.3395H0V57.3395H1V56.3395ZM43.8494 52.8709L43.3349 52.0135L43.3304 52.0162L43.8494 52.8709ZM52.7267 43.0959L51.8329 42.6473L51.8291 42.6551L52.7267 43.0959ZM55.5665 33.6924L56.3993 33.139L54.9299 30.9278L54.5754 33.5589L55.5665 33.6924ZM70.6171 56.3395L69.7842 56.893L70.081 57.3395H70.6171V56.3395ZM84.9996 56.3395V57.3395H86.9009L85.8236 55.7729L84.9996 56.3395ZM65.5935 28.1179L64.7705 27.5499L64.3792 28.1169L64.7695 28.6845L65.5935 28.1179ZM84.3115 1L85.1344 1.56806L86.2168 0L84.3115 0V1ZM70.4794 1V0H69.9427L69.6461 0.447291L70.4794 1ZM55.5522 23.5073L54.5615 23.6434L54.9219 26.267L56.3855 24.06L55.5522 23.5073ZM52.7267 14.2436L51.829 14.6845L51.8352 14.6968L52.7267 14.2436ZM40.2022 40.4944L40.9494 41.159L40.9494 41.159L40.2022 40.4944ZM12.7675 44.6725H11.7675V45.6725H12.7675V44.6725ZM12.7675 12.5094V11.5094H11.7675V12.5094H12.7675ZM40.2022 16.7662L40.9555 16.1086L40.9555 16.1086L40.2022 16.7662ZM30.5679 2C35.504 2 39.7692 3.11892 43.3992 5.32331L44.4373 3.61383C40.4516 1.19346 35.8166 0 30.5679 0V2ZM1 2H30.5679V0H1V2ZM2 56.3395V1H0V56.3395H2ZM30.5679 55.3395H1V57.3395H30.5679V55.3395ZM43.3304 52.0162C39.699 54.2214 35.4563 55.3395 30.5679 55.3395V57.3395C35.7726 57.3395 40.3842 56.1452 44.3685 53.7257L43.3304 52.0162ZM51.8291 42.6551C49.8457 46.6942 47.0162 49.8045 43.3349 52.0135L44.3639 53.7284C48.39 51.3126 51.4787 47.9062 53.6243 43.5366L51.8291 42.6551ZM54.5754 33.5589C54.1293 36.8711 53.213 39.898 51.833 42.6473L53.6204 43.5445C55.1072 40.5825 56.0841 37.3404 56.5575 33.826L54.5754 33.5589ZM71.4499 55.786L56.3993 33.139L54.7336 34.2459L69.7842 56.893L71.4499 55.786ZM84.9996 55.3395H70.6171V57.3395H84.9996V55.3395ZM64.7695 28.6845L84.1756 56.9061L85.8236 55.7729L66.4175 27.5513L64.7695 28.6845ZM83.4885 0.43194L64.7705 27.5499L66.4165 28.686L85.1344 1.56806L83.4885 0.43194ZM70.4794 2H84.3115V0H70.4794V2ZM56.3855 24.06L71.3128 1.55271L69.6461 0.447291L54.7188 22.9546L56.3855 24.06ZM51.8352 14.6968C53.199 17.3797 54.1103 20.3591 54.5615 23.6434L56.5429 23.3712C56.0641 19.8861 55.0917 16.6896 53.6181 13.7905L51.8352 14.6968ZM43.3992 5.32331C47.0353 7.53144 49.8442 10.6421 51.8291 14.6844L53.6243 13.8029C51.4803 9.4365 48.4168 6.03047 44.4373 3.61383L43.3992 5.32331ZM29.811 45.6725C34.4861 45.6725 38.2455 44.1991 40.9494 41.159L39.455 39.8299C37.2041 42.3605 34.036 43.6725 29.811 43.6725V45.6725ZM12.7675 45.6725H29.811V43.6725H12.7675V45.6725ZM11.7675 12.5094V44.6725H13.7675V12.5094H11.7675ZM29.811 11.5094H12.7675V13.5094H29.811V11.5094ZM40.9555 16.1086C38.2534 13.0132 34.4922 11.5094 29.811 11.5094V13.5094C34.0299 13.5094 37.1962 14.8434 39.4488 17.4239L40.9555 16.1086ZM44.9182 28.6698C44.9182 23.4162 43.6406 19.1845 40.9555 16.1086L39.4488 17.4239C41.7185 20.0238 42.9182 23.7278 42.9182 28.6698H44.9182ZM40.9494 41.159C43.6411 38.1326 44.9182 33.9219 44.9182 28.6698H42.9182C42.9182 33.6131 41.718 37.2855 39.455 39.8299L40.9494 41.159Z" fill="#FBFDFD" fill-opacity="0.3" mask="url(#path-1-outside-1_98_12)"/>
<defs>
<linearGradient id="paint0_linear_98_12" x1="42.9998" y1="1" x2="42.9998" y2="56.3395" gradientUnits="userSpaceOnUse">
<stop stop-color="#FBFDFD" stop-opacity="0.9"/>
<stop offset="1" stop-color="#FBFDFD" stop-opacity="0.4"/>
</linearGradient>
</defs>
</svg>
